<?xml version="1.0" standalone="no"?>
<svg xmlns:xlink="http://www.w3.org/1999/xlink" id="wave" style="transform:rotate(180deg); transition: 0.3s" viewBox="0 0 1440 490" version="1.1" xmlns="http://www.w3.org/2000/svg"><defs><linearGradient id="sw-gradient-0" x1="0" x2="0" y1="1" y2="0"><stop stop-color="rgba(60.612, 216.615, 195.477, 1)" offset="0%"/><stop stop-color="rgba(59.714, 193.847, 171.129, 1)" offset="100%"/></linearGradient></defs><path style="transform:translate(0, 0px); opacity:1" fill="url(#sw-gradient-0)" d="M0,0L40,0C80,0,160,0,240,49C320,98,400,196,480,204.2C560,212,640,131,720,155.2C800,180,880,310,960,343C1040,376,1120,310,1200,310.3C1280,310,1360,376,1440,392C1520,408,1600,376,1680,359.3C1760,343,1840,343,1920,334.8C2000,327,2080,310,2160,277.7C2240,245,2320,196,2400,220.5C2480,245,2560,343,2640,359.3C2720,376,2800,310,2880,277.7C2960,245,3040,245,3120,253.2C3200,261,3280,278,3360,253.2C3440,229,3520,163,3600,155.2C3680,147,3760,196,3840,245C3920,294,4000,343,4080,326.7C4160,310,4240,229,4320,212.3C4400,196,4480,245,4560,277.7C4640,310,4720,327,4800,351.2C4880,376,4960,408,5040,359.3C5120,310,5200,180,5280,147C5360,114,5440,180,5520,196C5600,212,5680,180,5720,163.3L5760,147L5760,490L5720,490C5680,490,5600,490,5520,490C5440,490,5360,490,5280,490C5200,490,5120,490,5040,490C4960,490,4880,490,4800,490C4720,490,4640,490,4560,490C4480,490,4400,490,4320,490C4240,490,4160,490,4080,490C4000,490,3920,490,3840,490C3760,490,3680,490,3600,490C3520,490,3440,490,3360,490C3280,490,3200,490,3120,490C3040,490,2960,490,2880,490C2800,490,2720,490,2640,490C2560,490,2480,490,2400,490C2320,490,2240,490,2160,490C2080,490,2000,490,1920,490C1840,490,1760,490,1680,490C1600,490,1520,490,1440,490C1360,490,1280,490,1200,490C1120,490,1040,490,960,490C880,490,800,490,720,490C640,490,560,490,480,490C400,490,320,490,240,490C160,490,80,490,40,490L0,490Z"/><defs><linearGradient id="sw-gradient-1" x1="0" x2="0" y1="1" y2="0"><stop stop-color="rgba(62, 243, 224.606, 0.33)" offset="0%"/><stop stop-color="rgba(11, 255, 139.285, 1)" offset="100%"/></linearGradient></defs><path style="transform:translate(0, 50px); opacity:0.9" fill="url(#sw-gradient-1)" d="M0,245L40,204.2C80,163,160,82,240,98C320,114,400,229,480,236.8C560,245,640,147,720,147C800,147,880,245,960,245C1040,245,1120,147,1200,106.2C1280,65,1360,82,1440,114.3C1520,147,1600,196,1680,236.8C1760,278,1840,310,1920,318.5C2000,327,2080,310,2160,294C2240,278,2320,261,2400,253.2C2480,245,2560,245,2640,212.3C2720,180,2800,114,2880,81.7C2960,49,3040,49,3120,81.7C3200,114,3280,180,3360,171.5C3440,163,3520,82,3600,49C3680,16,3760,33,3840,65.3C3920,98,4000,147,4080,147C4160,147,4240,98,4320,65.3C4400,33,4480,16,4560,40.8C4640,65,4720,131,4800,204.2C4880,278,4960,359,5040,351.2C5120,343,5200,245,5280,236.8C5360,229,5440,310,5520,343C5600,376,5680,359,5720,351.2L5760,343L5760,490L5720,490C5680,490,5600,490,5520,490C5440,490,5360,490,5280,490C5200,490,5120,490,5040,490C4960,490,4880,490,4800,490C4720,490,4640,490,4560,490C4480,490,4400,490,4320,490C4240,490,4160,490,4080,490C4000,490,3920,490,3840,490C3760,490,3680,490,3600,490C3520,490,3440,490,3360,490C3280,490,3200,490,3120,490C3040,490,2960,490,2880,490C2800,490,2720,490,2640,490C2560,490,2480,490,2400,490C2320,490,2240,490,2160,490C2080,490,2000,490,1920,490C1840,490,1760,490,1680,490C1600,490,1520,490,1440,490C1360,490,1280,490,1200,490C1120,490,1040,490,960,490C880,490,800,490,720,490C640,490,560,490,480,490C400,490,320,490,240,490C160,490,80,490,40,490L0,490Z"/><defs><linearGradient id="sw-gradient-2" x1="0" x2="0" y1="1" y2="0"><stop stop-color="rgba(230.482, 243, 62, 0.44)" offset="0%"/><stop stop-color="rgba(205.064, 255, 11, 1)" offset="100%"/></linearGradient></defs><path style="transform:translate(0, 100px); opacity:0.8" fill="url(#sw-gradient-2)" d="M0,343L40,343C80,343,160,343,240,334.8C320,327,400,310,480,326.7C560,343,640,392,720,375.7C800,359,880,278,960,245C1040,212,1120,229,1200,204.2C1280,180,1360,114,1440,98C1520,82,1600,114,1680,138.8C1760,163,1840,180,1920,171.5C2000,163,2080,131,2160,171.5C2240,212,2320,327,2400,375.7C2480,425,2560,408,2640,343C2720,278,2800,163,2880,147C2960,131,3040,212,3120,253.2C3200,294,3280,294,3360,285.8C3440,278,3520,261,3600,277.7C3680,294,3760,343,3840,375.7C3920,408,4000,425,4080,408.3C4160,392,4240,343,4320,302.2C4400,261,4480,229,4560,253.2C4640,278,4720,359,4800,383.8C4880,408,4960,376,5040,367.5C5120,359,5200,376,5280,326.7C5360,278,5440,163,5520,98C5600,33,5680,16,5720,8.2L5760,0L5760,490L5720,490C5680,490,5600,490,5520,490C5440,490,5360,490,5280,490C5200,490,5120,490,5040,490C4960,490,4880,490,4800,490C4720,490,4640,490,4560,490C4480,490,4400,490,4320,490C4240,490,4160,490,4080,490C4000,490,3920,490,3840,490C3760,490,3680,490,3600,490C3520,490,3440,490,3360,490C3280,490,3200,490,3120,490C3040,490,2960,490,2880,490C2800,490,2720,490,2640,490C2560,490,2480,490,2400,490C2320,490,2240,490,2160,490C2080,490,2000,490,1920,490C1840,490,1760,490,1680,490C1600,490,1520,490,1440,490C1360,490,1280,490,1200,490C1120,490,1040,490,960,490C880,490,800,490,720,490C640,490,560,490,480,490C400,490,320,490,240,490C160,490,80,490,40,490L0,490Z"/><defs><linearGradient id="sw-gradient-3" x1="0" x2="0" y1="1" y2="0"><stop stop-color="rgba(62, 157.162, 243, 1)" offset="0%"/><stop stop-color="rgba(32.732, 84.561, 77.539, 1)" offset="100%"/></linearGradient></defs><path style="transform:translate(0, 150px); opacity:0.7" fill="url(#sw-gradient-3)" d="M0,343L40,343C80,343,160,343,240,285.8C320,229,400,114,480,89.8C560,65,640,131,720,179.7C800,229,880,261,960,285.8C1040,310,1120,327,1200,351.2C1280,376,1360,408,1440,351.2C1520,294,1600,147,1680,130.7C1760,114,1840,229,1920,294C2000,359,2080,376,2160,326.7C2240,278,2320,163,2400,155.2C2480,147,2560,245,2640,236.8C2720,229,2800,114,2880,65.3C2960,16,3040,33,3120,106.2C3200,180,3280,310,3360,318.5C3440,327,3520,212,3600,204.2C3680,196,3760,294,3840,334.8C3920,376,4000,359,4080,367.5C4160,376,4240,408,4320,408.3C4400,408,4480,376,4560,359.3C4640,343,4720,343,4800,343C4880,343,4960,343,5040,294C5120,245,5200,147,5280,122.5C5360,98,5440,147,5520,138.8C5600,131,5680,65,5720,32.7L5760,0L5760,490L5720,490C5680,490,5600,490,5520,490C5440,490,5360,490,5280,490C5200,490,5120,490,5040,490C4960,490,4880,490,4800,490C4720,490,4640,490,4560,490C4480,490,4400,490,4320,490C4240,490,4160,490,4080,490C4000,490,3920,490,3840,490C3760,490,3680,490,3600,490C3520,490,3440,490,3360,490C3280,490,3200,490,3120,490C3040,490,2960,490,2880,490C2800,490,2720,490,2640,490C2560,490,2480,490,2400,490C2320,490,2240,490,2160,490C2080,490,2000,490,1920,490C1840,490,1760,490,1680,490C1600,490,1520,490,1440,490C1360,490,1280,490,1200,490C1120,490,1040,490,960,490C880,490,800,490,720,490C640,490,560,490,480,490C400,490,320,490,240,490C160,490,80,490,40,490L0,490Z"/></svg>