<?xml version="1.0" standalone="no"?>
<svg xmlns:xlink="http://www.w3.org/1999/xlink" id="wave" style="transform:rotate(180deg); transition: 0.3s" viewBox="0 0 1440 490" version="1.1" xmlns="http://www.w3.org/2000/svg"><defs><linearGradient id="sw-gradient-0" x1="0" x2="0" y1="1" y2="0"><stop stop-color="rgba(60.612, 216.615, 195.477, 1)" offset="0%"/><stop stop-color="rgba(59.714, 193.847, 171.129, 1)" offset="100%"/></linearGradient></defs><path style="transform:translate(0, 0px); opacity:1" fill="url(#sw-gradient-0)" d="M0,343L40,351.2C80,359,160,376,240,375.7C320,376,400,359,480,294C560,229,640,114,720,106.2C800,98,880,196,960,269.5C1040,343,1120,392,1200,416.5C1280,441,1360,441,1440,383.8C1520,327,1600,212,1680,179.7C1760,147,1840,196,1920,187.8C2000,180,2080,114,2160,122.5C2240,131,2320,212,2400,228.7C2480,245,2560,196,2640,220.5C2720,245,2800,343,2880,343C2960,343,3040,245,3120,179.7C3200,114,3280,82,3360,98C3440,114,3520,180,3600,204.2C3680,229,3760,212,3840,228.7C3920,245,4000,294,4080,302.2C4160,310,4240,278,4320,294C4400,310,4480,376,4560,343C4640,310,4720,180,4800,163.3C4880,147,4960,245,5040,245C5120,245,5200,147,5280,130.7C5360,114,5440,180,5520,179.7C5600,180,5680,114,5720,81.7L5760,49L5760,490L5720,490C5680,490,5600,490,5520,490C5440,490,5360,490,5280,490C5200,490,5120,490,5040,490C4960,490,4880,490,4800,490C4720,490,4640,490,4560,490C4480,490,4400,490,4320,490C4240,490,4160,490,4080,490C4000,490,3920,490,3840,490C3760,490,3680,490,3600,490C3520,490,3440,490,3360,490C3280,490,3200,490,3120,490C3040,490,2960,490,2880,490C2800,490,2720,490,2640,490C2560,490,2480,490,2400,490C2320,490,2240,490,2160,490C2080,490,2000,490,1920,490C1840,490,1760,490,1680,490C1600,490,1520,490,1440,490C1360,490,1280,490,1200,490C1120,490,1040,490,960,490C880,490,800,490,720,490C640,490,560,490,480,490C400,490,320,490,240,490C160,490,80,490,40,490L0,490Z"/><defs><linearGradient id="sw-gradient-1" x1="0" x2="0" y1="1" y2="0"><stop stop-color="rgba(62, 243, 224.606, 0.33)" offset="0%"/><stop stop-color="rgba(11, 255, 139.285, 1)" offset="100%"/></linearGradient></defs><path style="transform:translate(0, 50px); opacity:0.9" fill="url(#sw-gradient-1)" d="M0,0L40,0C80,0,160,0,240,49C320,98,400,196,480,261.3C560,327,640,359,720,334.8C800,310,880,229,960,228.7C1040,229,1120,310,1200,310.3C1280,310,1360,229,1440,187.8C1520,147,1600,147,1680,122.5C1760,98,1840,49,1920,81.7C2000,114,2080,229,2160,302.2C2240,376,2320,408,2400,359.3C2480,310,2560,180,2640,106.2C2720,33,2800,16,2880,57.2C2960,98,3040,196,3120,269.5C3200,343,3280,392,3360,416.5C3440,441,3520,441,3600,375.7C3680,310,3760,180,3840,130.7C3920,82,4000,114,4080,138.8C4160,163,4240,180,4320,171.5C4400,163,4480,131,4560,98C4640,65,4720,33,4800,57.2C4880,82,4960,163,5040,204.2C5120,245,5200,245,5280,269.5C5360,294,5440,343,5520,359.3C5600,376,5680,359,5720,351.2L5760,343L5760,490L5720,490C5680,490,5600,490,5520,490C5440,490,5360,490,5280,490C5200,490,5120,490,5040,490C4960,490,4880,490,4800,490C4720,490,4640,490,4560,490C4480,490,4400,490,4320,490C4240,490,4160,490,4080,490C4000,490,3920,490,3840,490C3760,490,3680,490,3600,490C3520,490,3440,490,3360,490C3280,490,3200,490,3120,490C3040,490,2960,490,2880,490C2800,490,2720,490,2640,490C2560,490,2480,490,2400,490C2320,490,2240,490,2160,490C2080,490,2000,490,1920,490C1840,490,1760,490,1680,490C1600,490,1520,490,1440,490C1360,490,1280,490,1200,490C1120,490,1040,490,960,490C880,490,800,490,720,490C640,490,560,490,480,490C400,490,320,490,240,490C160,490,80,490,40,490L0,490Z"/><defs><linearGradient id="sw-gradient-2" x1="0" x2="0" y1="1" y2="0"><stop stop-color="rgba(230.482, 243, 62, 0.44)" offset="0%"/><stop stop-color="rgba(205.064, 255, 11, 1)" offset="100%"/></linearGradient></defs><path style="transform:translate(0, 100px); opacity:0.8" fill="url(#sw-gradient-2)" d="M0,392L40,343C80,294,160,196,240,179.7C320,163,400,229,480,212.3C560,196,640,98,720,49C800,0,880,0,960,49C1040,98,1120,196,1200,245C1280,294,1360,294,1440,318.5C1520,343,1600,392,1680,367.5C1760,343,1840,245,1920,220.5C2000,196,2080,245,2160,269.5C2240,294,2320,294,2400,253.2C2480,212,2560,131,2640,114.3C2720,98,2800,147,2880,155.2C2960,163,3040,131,3120,130.7C3200,131,3280,163,3360,179.7C3440,196,3520,196,3600,212.3C3680,229,3760,261,3840,253.2C3920,245,4000,196,4080,171.5C4160,147,4240,147,4320,187.8C4400,229,4480,310,4560,302.2C4640,294,4720,196,4800,179.7C4880,163,4960,229,5040,228.7C5120,229,5200,163,5280,171.5C5360,180,5440,261,5520,277.7C5600,294,5680,245,5720,220.5L5760,196L5760,490L5720,490C5680,490,5600,490,5520,490C5440,490,5360,490,5280,490C5200,490,5120,490,5040,490C4960,490,4880,490,4800,490C4720,490,4640,490,4560,490C4480,490,4400,490,4320,490C4240,490,4160,490,4080,490C4000,490,3920,490,3840,490C3760,490,3680,490,3600,490C3520,490,3440,490,3360,490C3280,490,3200,490,3120,490C3040,490,2960,490,2880,490C2800,490,2720,490,2640,490C2560,490,2480,490,2400,490C2320,490,2240,490,2160,490C2080,490,2000,490,1920,490C1840,490,1760,490,1680,490C1600,490,1520,490,1440,490C1360,490,1280,490,1200,490C1120,490,1040,490,960,490C880,490,800,490,720,490C640,490,560,490,480,490C400,490,320,490,240,490C160,490,80,490,40,490L0,490Z"/><defs><linearGradient id="sw-gradient-3" x1="0" x2="0" y1="1" y2="0"><stop stop-color="rgba(62, 157.162, 243, 1)" offset="0%"/><stop stop-color="rgba(32.732, 84.561, 77.539, 1)" offset="100%"/></linearGradient></defs><path style="transform:translate(0, 150px); opacity:0.7" fill="url(#sw-gradient-3)" d="M0,147L40,122.5C80,98,160,49,240,89.8C320,131,400,261,480,302.2C560,343,640,294,720,261.3C800,229,880,212,960,187.8C1040,163,1120,131,1200,122.5C1280,114,1360,131,1440,147C1520,163,1600,180,1680,196C1760,212,1840,229,1920,236.8C2000,245,2080,245,2160,236.8C2240,229,2320,212,2400,187.8C2480,163,2560,131,2640,114.3C2720,98,2800,98,2880,130.7C2960,163,3040,229,3120,236.8C3200,245,3280,196,3360,196C3440,196,3520,245,3600,228.7C3680,212,3760,131,3840,114.3C3920,98,4000,147,4080,187.8C4160,229,4240,261,4320,285.8C4400,310,4480,327,4560,310.3C4640,294,4720,245,4800,196C4880,147,4960,98,5040,122.5C5120,147,5200,245,5280,277.7C5360,310,5440,278,5520,253.2C5600,229,5680,212,5720,204.2L5760,196L5760,490L5720,490C5680,490,5600,490,5520,490C5440,490,5360,490,5280,490C5200,490,5120,490,5040,490C4960,490,4880,490,4800,490C4720,490,4640,490,4560,490C4480,490,4400,490,4320,490C4240,490,4160,490,4080,490C4000,490,3920,490,3840,490C3760,490,3680,490,3600,490C3520,490,3440,490,3360,490C3280,490,3200,490,3120,490C3040,490,2960,490,2880,490C2800,490,2720,490,2640,490C2560,490,2480,490,2400,490C2320,490,2240,490,2160,490C2080,490,2000,490,1920,490C1840,490,1760,490,1680,490C1600,490,1520,490,1440,490C1360,490,1280,490,1200,490C1120,490,1040,490,960,490C880,490,800,490,720,490C640,490,560,490,480,490C400,490,320,490,240,490C160,490,80,490,40,490L0,490Z"/></svg>